<?xml version="1.0" encoding="UTF-8" standalone="no"?>
<!-- Created with Inkscape (http://www.inkscape.org/) -->

<svg
   xmlns:dc="http://purl.org/dc/elements/1.1/"
   xmlns:cc="http://creativecommons.org/ns#"
   xmlns:rdf="http://www.w3.org/1999/02/22-rdf-syntax-ns#"
   xmlns:svg="http://www.w3.org/2000/svg"
   xmlns="http://www.w3.org/2000/svg"
   xmlns:sodipodi="http://sodipodi.sourceforge.net/DTD/sodipodi-0.dtd"
   xmlns:inkscape="http://www.inkscape.org/namespaces/inkscape"
   width="210mm"
   height="297mm"
   viewBox="0 0 744.09448819 1052.3622047"
   id="svg4819"
   version="1.1"
   inkscape:version="0.91 r13725"
   sodipodi:docname="middle_battery_icon.svg">
  <defs
     id="defs4821" />
  <sodipodi:namedview
     id="base"
     pagecolor="#ffffff"
     bordercolor="#666666"
     borderopacity="1.0"
     inkscape:pageopacity="0.0"
     inkscape:pageshadow="2"
     inkscape:zoom="1.4"
     inkscape:cx="356.87412"
     inkscape:cy="329.25563"
     inkscape:document-units="px"
     inkscape:current-layer="layer1"
     showgrid="false"
     inkscape:window-width="1366"
     inkscape:window-height="713"
     inkscape:window-x="0"
     inkscape:window-y="27"
     inkscape:window-maximized="1"
     inkscape:snap-bbox="true"
     inkscape:snap-bbox-midpoints="true" />
  <metadata
     id="metadata4824">
    <rdf:RDF>
      <cc:Work
         rdf:about="">
        <dc:format>image/svg+xml</dc:format>
        <dc:type
           rdf:resource="http://purl.org/dc/dcmitype/StillImage" />
        <dc:title></dc:title>
      </cc:Work>
    </rdf:RDF>
  </metadata>
  <g
     inkscape:label="レイヤー 1"
     inkscape:groupmode="layer"
     id="layer1">
    <circle
       style="opacity:1;fill:#b7be40;fill-opacity:1;fill-rule:nonzero;stroke:none"
       id="path5460"
       cx="300.00003"
       cy="752.36224"
       r="200" />
    <g
       id="layer1-6"
       inkscape:label="レイヤー 1"
       transform="matrix(0.86956519,0,0,0.86956519,30.4834,40.879101)"
       style="fill:#ffffff;fill-opacity:1">
      <path
         style="opacity:1;fill:#ffffff;fill-opacity:1;fill-rule:nonzero;stroke:none"
         d="m 305.77734,748.20508 -37.51367,140 92.08985,0 37.51367,-140 -92.08985,0 z"
         id="path5713" />
      <path
         style="opacity:1;fill:#ffffff;fill-opacity:1;fill-rule:nonzero;stroke:none"
         d="m 424.5332,748.20508 -37.51367,140 41.42383,0 c 13.296,0 24,-10.704 24,-24 l 0,-92 c 0,-13.296 -10.704,-24 -24,-24 l -3.91016,0 z"
         id="rect4234-6" />
      <path
         id="rect4222"
         d="m 152.44413,763.20564 c -8.31,0 -15,6.69 -15,15 l 0,80 c 0,8.31 6.69,15 15,15 l 15,0 0,-110 -15,0 z"
         style="opacity:1;fill:#ffffff;fill-opacity:1;fill-rule:nonzero;stroke:none"
         inkscape:connector-curvature="0" />
      <path
         id="rect4146"
         d="m 212.44413,718.20564 c -16.62,0 -30,13.38 -30,30 l 0,140 c 0,16.62 13.38,30 30,30 l 240.00001,0 c 16.62,0 30,-13.38 30,-30 l 0,-140 c 0,-16.62 -13.38,-30 -30,-30 l -240.00001,0 z m 12,15 216.00001,0 c 14.958,0 27,12.042 27,27 l 0,116 c 0,14.958 -12.042,27 -27,27 l -216.00001,0 c -14.958,0 -27,-12.042 -27,-27 l 0,-116 c 0,-14.958 12.042,-27 27,-27 z"
         style="opacity:1;fill:#ffffff;fill-opacity:1;fill-rule:nonzero;stroke:none"
         inkscape:connector-curvature="0" />
    </g>
  </g>
</svg>
