<?xml version="1.0" encoding="UTF-8" standalone="no"?>
<!-- Created with Inkscape (http://www.inkscape.org/) -->

<svg
   xmlns:dc="http://purl.org/dc/elements/1.1/"
   xmlns:cc="http://creativecommons.org/ns#"
   xmlns:rdf="http://www.w3.org/1999/02/22-rdf-syntax-ns#"
   xmlns:svg="http://www.w3.org/2000/svg"
   xmlns="http://www.w3.org/2000/svg"
   xmlns:sodipodi="http://sodipodi.sourceforge.net/DTD/sodipodi-0.dtd"
   xmlns:inkscape="http://www.inkscape.org/namespaces/inkscape"
   width="210mm"
   height="297mm"
   viewBox="0 0 744.09448819 1052.3622047"
   id="svg2"
   version="1.1"
   inkscape:version="0.91 r13725"
   sodipodi:docname="plug_icon.svg"
   inkscape:export-filename="/home/cpthgli/Pictures/Inkscape/plug_icon.png"
   inkscape:export-xdpi="14.4"
   inkscape:export-ydpi="14.4">
  <defs
     id="defs4" />
  <sodipodi:namedview
     id="base"
     pagecolor="#ffffff"
     bordercolor="#666666"
     borderopacity="1.0"
     inkscape:pageopacity="0.0"
     inkscape:pageshadow="2"
     inkscape:zoom="0.35"
     inkscape:cx="440.53439"
     inkscape:cy="407.27868"
     inkscape:document-units="px"
     inkscape:current-layer="layer1"
     showgrid="false"
     inkscape:snap-bbox="true"
     inkscape:snap-bbox-midpoints="true"
     inkscape:bbox-nodes="true"
     inkscape:snap-bbox-edge-midpoints="true"
     inkscape:bbox-paths="true"
     inkscape:object-paths="true"
     inkscape:snap-intersection-paths="true"
     inkscape:object-nodes="true"
     inkscape:snap-smooth-nodes="true"
     inkscape:snap-midpoints="true"
     inkscape:window-width="913"
     inkscape:window-height="713"
     inkscape:window-x="0"
     inkscape:window-y="27"
     inkscape:window-maximized="0" />
  <metadata
     id="metadata7">
    <rdf:RDF>
      <cc:Work
         rdf:about="">
        <dc:format>image/svg+xml</dc:format>
        <dc:type
           rdf:resource="http://purl.org/dc/dcmitype/StillImage" />
        <dc:title></dc:title>
      </cc:Work>
    </rdf:RDF>
  </metadata>
  <g
     inkscape:label="レイヤー 1"
     inkscape:groupmode="layer"
     id="layer1">
    <circle
       style="opacity:1;fill:#b7be40;fill-opacity:1;fill-rule:nonzero;stroke:none"
       id="path4244"
       cx="286.93246"
       cy="757.24384"
       r="200" />
    <rect
       style="opacity:1;fill:#be4040;fill-opacity:1;fill-rule:nonzero;stroke:none"
       id="rect4146"
       width="26.087021"
       height="86.956734"
       x="208.67139"
       y="613.7652"
       rx="8.6956739"
       ry="8.6956739" />
    <rect
       style="opacity:1;fill:#be4040;fill-opacity:1;fill-rule:nonzero;stroke:none"
       id="rect4146-3"
       width="26.087021"
       height="86.956734"
       x="339.10651"
       y="613.7652"
       rx="8.6956739"
       ry="8.6956739" />
    <path
       style="opacity:1;fill:#be4040;fill-opacity:1;fill-rule:nonzero;stroke:none"
       d="m 165.19303,713.76549 c -4.8174,0 -8.69567,3.87827 -8.69567,8.69567 l 0,17.39135 0,8.69567 0,26.08702 c 0,14.45221 11.63481,26.08703 26.08702,26.08703 l 208.69616,0 c 14.45221,0 26.08702,-11.63482 26.08702,-26.08703 l 0,-26.08702 0,-8.69567 0,-17.39135 c 0,-4.8174 -3.87827,-8.69567 -8.69567,-8.69567 l -17.39135,0 -208.69616,0 -17.39135,0 z"
       id="rect4182"
       inkscape:connector-curvature="0" />
    <path
       style="opacity:1;fill:#be4040;fill-opacity:1;fill-rule:nonzero;stroke:none"
       d="m 282.58462,813.76498 c -4.8174,0 -8.69567,3.87827 -8.69567,8.69567 l 0,34.7827 26.08702,0 0,-34.7827 c 0,-4.8174 -3.87827,-8.69567 -8.69567,-8.69567 l -8.69568,0 z"
       id="rect4146-6"
       inkscape:connector-curvature="0" />
    <path
       style="opacity:1;fill:#be4040;fill-opacity:1;fill-rule:nonzero;stroke:none"
       d="m 330.41083,887.67821 0,26.08702 34.78269,0 c 4.81741,0 8.69568,-3.8783 8.69568,-8.6957 l 0,-8.69565 c 0,-4.8174 -3.87827,-8.69567 -8.69568,-8.69567 l -34.78269,0 z"
       id="rect4146-6-7"
       inkscape:connector-curvature="0" />
    <path
       style="opacity:1;fill:#be4040;fill-opacity:1;fill-rule:nonzero;stroke:none"
       d="m 299.97597,826.80849 c -14.45221,0 -26.08702,11.63481 -26.08702,26.08702 l 0,34.7827 c 0,14.45222 11.63481,26.08702 26.08702,26.08702 l 34.7827,0 c 14.4522,0 26.08702,-11.6348 26.08702,-26.08702 l -52.17405,0 c -4.8174,0 -8.69567,-3.87828 -8.69567,-8.69568 l 0,-52.17404 z"
       id="rect4219"
       inkscape:connector-curvature="0" />
  </g>
</svg>
